<svg id="Capa_1" data-name="Capa 1" xmlns="http://www.w3.org/2000/svg" viewBox="0 0 691.86 580.76"><title>logoproyecto</title><path d="M337.48,437.58c-7.07-4.25-8.82-12-11.68-18.75A194.76,194.76,0,0,1,311,356.76c-.93-12.32,8.49-24.83,21.16-27.8,5-1.16,10-2,14.93-1.31,1.61-1.7.5-3-.14-4.26a92.64,92.64,0,0,1,20.38-109.28c10.71-9.94,22.29-18.46,36.44-22.79,5.43-1.67,8.08-5.89,11-10.11,13.69-19.59,30.29-35.91,52.88-45,16-6.42,32.8-7.66,49.74-5.33,5.81.81,10.54,0,15.27-3.37,10.34-7.38,22.86-12.48,26.58-26.5a5.29,5.29,0,0,1,1.61-2.16C577.63,83.12,595.55,68.44,618.22,63c24.41-5.87,46,.8,61.74,21.64a18.89,18.89,0,0,0,13.22,8c31.6,5.14,61.17,15.69,87.56,34.28,4.76,3.36,9.79,5.55,16,4.61,42.9-6.44,74.88,11.78,99.51,45.22a53.52,53.52,0,0,0,20.91,17.39c37.64,18.12,58.56,48.27,60,90.41a74.79,74.79,0,0,1-11.32,41.88c6.07,1,11.66,1.5,17,3,12.89,3.67,20.51,13.27,20,26.57-1.32,33.63-12,64.11-31.06,92-19.32,28.26-45.06,49-74,66.32-5.22,3.11-8.76,6.54-9,13.32s-6.41,10.07-11.6,12.82c-6.85,3.63-10.8,8.07-9.7,16.3.66,4.88-1.81,8.35-6.13,11.1-21.27,13.51-44.77,22.08-68.12,31-1.85.71-4.21,2.14-5.83,0s.31-4,1.42-5.68c5.66-8.64,10-17.79,12.18-28,1.21-5.75.22-7.3-6.25-6.36-16.25,2.34-25.59,10.91-27,27.29-1.5,17.06-12.16,25.25-27.26,29.6-2.87.83-5.72,1.59-8.06,3.8-19.86,18.76-44.61,23.33-70.4,22.13-38.22-1.79-73.23-13.75-103.68-37.54-13.15-10.28-24.51-22.31-33.12-36.69a24,24,0,0,0-14.34-11.23c-44.92-14.5-87.82-33.21-125.08-63-4.65-3.72-10.14-6.7-12.46-12.72,6.64.36,9.06,6.57,13.53,9.91A374,374,0,0,0,469,537c12.82,5.26,25.86,10,38.91,14.63,3.47,1.24,9.5,3,6.83-4.24-6-16.08-7.38-32.85-9.31-49.59-.76-6.64-4-6.69-8.48-3.29A65.69,65.69,0,0,1,472.57,506c-15.68,3.88-26.36-1.73-32.33-16.71-1.22-3.06-1.76-6.88-3.94-9-8.24-7.9-11.39-17.92-11.72-28.57-.55-18-7.08-31.81-20.25-44.9-18.31-18.21-32.83-40-45.17-62.91-2.66-5-5.26-9.92-11.69-11.73a26,26,0,0,0-33.05,29c2.49,17.22,5.77,34.32,12.41,50.75C330.28,420.57,337.12,427.78,337.48,437.58ZM530.85,247.47c-16.91,9.93-22.67,31.88-11.54,44.33,4.4,4.92,9.87,6.73,16.18,3.9s8.39-7.66,7.51-16.06c-4.15,6.09-5.62,14.37-13.2,11.76s-9.4-10.67-9.6-17.94c-.27-10.08,6.26-17.13,12.72-23.94,9.3-10.07,19.5-5.91,29.35-1.45,11.73,5.32,16.24,15.87,18.53,28.3,2.11-17.53-5.64-29.14-20.69-36.9,12.83-.27,18.16,8.95,24.63,17.79.72-10.69-6.41-16.43-12.12-23.31,4-1.08,6,2.26,9.74,2.21a49.7,49.7,0,0,1-8.91-25.09c-5.63,11.36-13.11,18-22.1,23.37C544.42,238.59,536.79,241.73,530.85,247.47ZM742.44,423c3.51-7.92,7.36-15.61,9.57-24.15,1.92-7.42-.14-11.63-6.89-14.13-5.49-2.05-16.91,1.56-18.07,6.37a300.41,300.41,0,0,0-7.73,53.3c9.6-6.55,13.63-17,23.18-21.45-3.45,7.89-9.4,14-15.44,19.71-7.38,6.93-9.14,14.36-5.79,23.54s6.52,18.77,10.1,28c8.64,22.3,9.8,22.59,31.44,11.92,4.48-2.21,6.17-4.05,2.65-8.6-15.59-20.21-22.09-43.12-19.89-68.56C745.77,426.6,747,423.09,742.44,423ZM849.18,460.9c4.06,4,7.93,8.27,12.23,12,11.17,9.68,19.8,21.14,24.2,35.29,1.94,6.22,3.88,7.38,9.76,3.86,31.17-18.66,58.43-41.76,77.9-72.56,15.62-24.7,25.13-52,26.06-81.67.45-14.09-6.24-22.11-20.29-25.76-11.23-2.91-17.65,1-24.91,13.66-6.85,11.95-13.07,24.44-23.6,33.86,2.71-9.84,9.93-17.09,14.74-25.73,9.05-16.27,21.26-31.06,26.12-49.31,11.46-43-17.94-95.37-60.6-109.54-4.49-1.49-7.32-.94-9.78,3.26-5,8.57-10.3,17-15.59,25.4-8.62,13.7-15.93,28.28-27.24,40.15.69-4.28,3-7.83,5.22-11.41q17.21-27.54,34.39-55.1c2-3.25,4.59-6.32,1.56-10.64-23.82-33.92-53.35-57-97.8-53.15-8.06.7-12.53,3.67-14.24,11.95-3.11,15-7,29.88-10.66,44.77-4.85,19.63-4.08,20.94,15.83,25.63,2.64.62,5.28,1.2,7.92,1.82,6.62,1.56,12.12,5,17.13,9.57,16.94,15.39,21.17,34.26,15.57,55.86-1.25,4.8-2.82,9.48-.37,16.05,3.4-5.06,5.93-8.75,8.38-12.48,5.25-8,9-17.13,17.13-22.94-.83,4.53-3,8.35-5.63,12.12-5.74,8.09-10.84,16.63-16.56,24.73-3.35,4.74-1.69,8.38,1.31,12.18,2.86,3.61,5.85,7.31,11.09,6.37s5.79-5,5.88-9.65c.12-5.93,3.31-3.47,5.78-1.56,9.27,7.2,10.22,25.88,2,36.32C853.72,355,842.41,358.15,829.22,356c3,16.34,2.77,21.7-1.31,34.63C818.53,420.38,824.79,441.07,849.18,460.9ZM588.69,157c-14.89,2.57-16,3.95-14.73,18,.8,8.83,4.5,16.86,7.28,25.11,6.75,20,22.14,24.11,38.41,10.57q9-7.5,18.18-14.84c1.61-1.3,3.48-3,5.6-1.36s1.34,3.88.56,5.86c-3,7.63-7.52,14.36-12.48,20.85-11.29,14.77-11.29,18.7.94,32.7,14.46,16.57,29.27,32.83,40.2,52.11,12.87,22.68,9.2,39.66-12.36,54.47C651.37,366.54,642,372,632.65,377.5c-9.57,5.65-17.31,13-22.36,22.95-2.2,4.33-1.14,8.33,3.13,10.94,2.88,1.75,6.25,1.88,7.8-1.51,4.81-10.56,7.32-1.46,8.93,1.4,4.25,7.61.28,19.79-8.34,26.4-22,16.89-34.89,41-49.72,63.45-4.28,6.48-3.85,13.71.21,20.58,9.22,15.64,22,27.29,39.44,32.62,41.42,12.65,81.59,5.51,121.09-9,6.24-2.28,6.49-7.32,4.67-12.72-3.85-11.42-7.17-23.07-11.89-34.11-10.37-24.3-21.09-49-15.57-75.77,4.18-20.31-1.64-33.07-17.08-46.15-17.22-14.59-17-28.91-4.67-48.1.16-.26.33-.51.5-.76,10.08-15.81,9.4-24.13-2.76-38.07a61.77,61.77,0,0,1-8.46-11.64,16.28,16.28,0,0,0-11.44-9c-12.73-3.25-20.73-11.84-23.65-24.66-4.74-20.79,2.15-39.85,9.33-58.81,1.23-3.22,3.22-3.64,6.43-2.52a6.51,6.51,0,0,0,8.75-4.34c1.46-5.28-4-2.1-5.84-3.66-.67-.57-1.77-.7-2.32-1.34-3.42-3.9-5.87-3.17-7.93,1.33-.7,1.55-1.55,3.32-5.14,3.49,2.33-8.55.55-17.17,1.82-25.46,4-26.25-15.39-42.53-37.42-44.42-12.63-1.09-24.3,7.46-28.41,19.6-1.49,4.4.18,5.56,4.06,7,9.72,3.5,12.85,11.27,9,20.84-.89,2.23-2,4.39-3,6.56-2,4.21-5.63,8.18-.81,13,1.43,1.43.22,3.47-1.31,4.65s-3,.52-4.18-.41c-3.87-2.94-5.34-6.52-2.34-10.92C585.53,165.49,588.49,162.35,588.69,157Zm19.06,412.69c-4.54-.27-6.9-.16-9.17-.58-31.59-5.85-49.2-24.58-55.53-58.38-4-21.36-4.23-43.12-7.23-64.58C533.53,429.78,530,413.85,520,400c12,31.51,15.44,63.3,5,95.8-1.68-31.22,1.37-63-12.79-92.44,5.56,27.2,1.95,54.63,2.11,81.95.12,19.48-1.52,39.47,9.78,57,23.65,36.64,57.29,57.55,100.54,63.12,2.75.35,6-.83,9.07,3.42-37.59-.68-69-13.38-95.55-38.58,33.41,46.13,116.41,79.38,156.12,63-49.62-.68-96.29-12.34-105.81-26.07,43.94,11.84,87.87,27.61,134.7,13.24-12.68,0-25.54,2-38.61-2.45,2.26-3.61,4.47-2.7,6.47-2.65,15.71.43,31.27-.77,46.55-4.6,13.49-3.38,23.16-9.71,25.11-25.53a63.77,63.77,0,0,1,14.76-33.53c3.95-4.67,3-6.83-2.89-7.18-11.77-.69-23.32-.52-34.7,3.8-35,13.32-70.76,21.24-108.67,16.21-44.47-5.91-71.43-35-73.86-79.42-1.54-28.06-5.68-55.8-20.75-80.53-1-1.6-1.3-4.32-5.07-2.8,4.82,12.52,9.5,25,11.07,38.54,2.19,18.9,1.2,37.88,3,56.79C548.41,527,562.19,548.72,590,561,595.18,563.31,600.92,564.39,607.75,569.66ZM809.2,464.14c-17.42-12.61-24.47-30.82-20.3-48.71,2.92-12.53,10.12-23.11,15.82-34.34,11.75-23.16,14.17-46.47,1.7-70.09-2.55-4.82-5.7-9.5-12.22-11.37,1.86,19.57-4.57,36.26-13.11,52.36-12.17,22.92-23.81,45.94-28,72.05-3.47,21.59-.31,41.44,12.85,59.13,10.42,14,21.31,27.66,32,41.46,13.29,17.14,15.52,35.4,5.82,55-1.24,2.51-3.85,4.72-2.43,9,20.33-5.63,38.61-15.05,55.58-27.17,3.39-2.41,2.94-6.39,3-10,.58-21.76-8.31-40.35-19.48-58.18-1.44-2.3-4.12-4.07-3.66-8.72a49.72,49.72,0,0,1,13.92,15.25c5.6,9.35,9.29,19.57,14,29.33,1.78,3.71,4.39,7.85,9.69,6.08,4.77-1.6,8.7-4.49,8.7-10.26a61.76,61.76,0,0,0-.75-9.88c-2.72-16.72-13.08-28.65-24.88-39.79-13.4-12.65-30.43-22.2-36.13-41.69,0,14.22,6.41,25.7,14.5,36.6-11.93-8.8-18.7-20.42-19.63-35.28-.91-14.61.68-28.89,5.8-42.67a58,58,0,0,0,2.9-30.22c-.35-2.1-1.16-4.38-3.68-4.51-1.76-.08-2.13,1.79-2.45,3.29-3.3,15.3-11.55,28.35-19,41.78-7.72,13.91-8.5,28-1.07,42.31C801.73,450.68,805,456.37,809.2,464.14ZM503.45,133.56c-37.49,0-64.33,18.6-84.63,48.5-5.31,7.82-3.5,21.63,4.76,25.47,5.89,2.74,7.05,7.26,10,11.53,2.38,3.5,1.71,7.51,3.64,11,10.85,19.47,24.2,37.35,35.88,56.28,1.44,2.33,4,5.16,6.35,1.82,6.79-9.54,17.55-16.05,21.7-27.44,6.29-17.29,17.6-29.32,35.24-34.71,7.39-2.26,9.28-6.05,7.32-13.38-5.6-20.93-10.76-42-16-63-3.9-15.62-4.07-15.81-20.59-16.06C505.86,133.54,504.65,133.56,503.45,133.56ZM404,234.78c4.88-6.7,9.46-12.58,13.59-18.75,5.63-8.41-2.8-13.13-5.76-19-2.51-5-7.09-2.84-11.1-1.14a99.29,99.29,0,0,0-45.84,39.33c-15.13,24-19.58,50-8.86,76.71,10,24.89,25.14,47.07,41.12,68.51C396.64,393.12,406,406,418,416.68c3.88,3.44,5.23,2.75,6.32-2,2.37-10.29,6.21-20.11,10.48-29.75,1.39-3.12,2.14-6.3,1.11-9.64-8.37-27.08-17.49-54-33.41-77.64-9.7-14.42-17.58-28.61-14.78-46.73,1.09-7.11,1.31-14.36,2-21.54.25-2.72.47-5.79,3.86-6.35,3.65-.6,6.48,1.19,8,4.5A63.63,63.63,0,0,1,404,234.78Zm-7.65-3.62c-.91,10.25-1.73,18.31-2.32,26.38-.71,9.59,1.3,18.38,7,26.47,12.86,18.3,22.77,38.13,30.93,59,7.67,19.6,15.28,39.26,24.87,58.09,6.4,12.59,16.85,17.52,30.08,17.67,13.77.16,19.64-8.24,15.54-21.49-2.63-8.52-7.46-15.68-13.37-22.25-19.5-21.69-36.55-45.54-57.81-65.7-3.38-3.2-5.65-7.23-3.66-12.19,3.17-7.89,1.86-15.44-1.87-22.65-4.35-8.42-2.56-15.65,3.49-22.35,1.81-2,3.58-4.06,5.21-6.21.37-.47.06-1.46.06-2.35-2.86.26-4.38,3.87-7.3,2.56-.59-4.39,5.13-5.46,4.28-9.57-3.42-.58-4.24,4.49-8,3.24.48-5.37,7-8,6.69-15-8.81,6.77-10.72,18.1-21,24.22,3.42-12.62,13-20.3,15.41-31.41-10.35,9.71-16.62,22.22-24.55,35.91C397.06,245.21,400.06,238.63,396.35,231.16ZM691.51,95.85c-1.2.13-4.91-1.07-3.48,2.4,4.26,10.39,4.32,22.76,14,30.65,7.55,6.15,14.65,12.73,17.22,22.56,2.11,8,4.49,15.35,14.54,16.4,1.83.19,3.72,2,5.16,3.46,8.77,9,19,16.58,24.89,28.12.91,1.78,1.81,4.41,4.37,3.84,2.37-.53,2.31-3.26,2.8-5.22,4.63-18.37,9.19-36.76,13.81-55.13,1.1-4.34,1.33-8.27-3-11.25C754.7,112.85,724.63,101.29,691.51,95.85Zm50.37,105.69c-3.75-7.38-2.59-13-3.63-18.21s-2.25-10.49-10.08-11.24c10,15.33,5.35,30.63,4.55,47.61-5-5.31-1.74-10.51-4.53-14.28-2.4,1.05-1.63,3.11-1.7,4.73-.74,15.69,6.73,27.49,17.46,38.1,14.79,14.61,23.75,31.59,20.65,53.41-1,6.78-.21,13.83-.09,20.75s2.43,13.6,5.35,19.92c2,4.27,4.57,5.41,8.17,1.46,13.12-14.42,14.49-42.21,3-58-12.95-17.85-18.11-38.53-20.39-59.95-1.16-10.9,1.45-22.48-8.15-31.15-2,2.5,1.07,7.6-3.79,9.74-2.66-6,.65-12.63-3.6-19.55C744,190.82,743.12,195.12,741.88,201.54ZM476.28,455.18c5.51-6,12.4-10.28,17.54-16.46,1.51-1.81,3.81-3.68,2.36-6.28-1.65-2.95-4.74-2.12-7.34-1.54-6.91,1.55-11.1,6.7-15.54,11.72-8.07,9.11-17.52,15.05-30.66,14.44-2.28-.1-6.18,4.28-10.21,5.09a12.32,12.32,0,0,0,.51,4.14c3.31,9,11.82,14,21.53,12.78,11.48-1.47,20.86-7.35,29.73-14.32,1.67-1.32,2.87-3.88,7.05-2.81-11.8,14.12-25.16,23.08-43.67,23.16,4.92,5.81,11.79,2.38,18.19,4-3.74,4.69-9.06,3.73-14.49,6,15.32,7.08,27.39,2,38.6-5.46,7-4.69,15.94-8.8,14.81-20.93-6.18,4.7-11.26,9.29-18.13,11.16,5.56-6.18,13-10.68,16.66-18.22,3.92-8.08,1.93-16.73,2-26.66-5.49,5.09-9.49,9-13.75,12.69S482.3,454.22,476.28,455.18ZM534.8,272.07c-.55-4.75.45-5.64,6-4,13.48,3.95,17.43,22.12,7.07,33.35-7.7,8.35-17.48,12-28.58,9.64-6.77-1.46-9.27,1.13-10.88,6.92-3.61,13-7.55,26-11.19,39-1,3.77-4.33,9.63,1.71,10.57,8.41,1.31,16,8.85,25.24,4a3.36,3.36,0,0,0,1.05-1.44c7.21-14.08,11.85-29.13,12.87-44.73.32-4.82,1.3-7.65,4.25-10.61,7.77-7.8,14.19-16.38,16-27.63,2.21-13.67-8.26-24.76-21.68-22.92-5.42.74-9,3.5-9.07,9.32-.06,2.92-.41,7.07,3.57,7.1C535.6,280.65,535.71,276.8,534.8,272.07Zm81.51.42C616.77,288.66,613,302,605,314.2c-6.61,10.06-13.32,20.06-19.63,30.3-5,8.05-8.21,16.77-7.93,26.6,9.49-12.32,20.58-22.91,30.45-34.59,10.16-12,16.27-24.53,9.25-40.31-.08-.17.67-.71,1-1.06,8.2,9.57,8.73,20,2.09,32.32-7.54,14-19,24.74-29.3,36.5-7.79,8.93-14.8,18.24-18.45,29.66-4.72,14.8,1.79,31.14,14.21,36.06,0-.29.24-.67.13-.83a25.37,25.37,0,0,0-2.66-3.56c-9.66-9.67-10.35-20.49-4.21-32.2,4.08-7.77,9.37-14.63,15.07-21.3,9-10.52,19.74-19.45,27.55-31C637,319.48,634.92,291.5,616.31,272.49Zm-20.6,155.38c-7.52-10.44-6-19.75-2.32-28.94,4.38-11.05,10.39-21.15,19.33-29.12s18.52-15.42,27.43-23.51c13.49-12.27,16.06-23.77,9-40.64-10.09-24.17-28.57-42.16-45.48-61.29,5.32,13.09,15.72,22.68,23.17,34.31,12.61,19.68,15.73,39.59,2.22,60.06a136,136,0,0,1-17.78,21.58c-9.42,9.35-18.2,19.34-24.92,30.81C577.72,405.88,580.65,419.05,595.71,427.87ZM429.94,263.81c1.75,7.18,7.3,13.78,6.49,21.26-1.78,16.4,9.25,25.76,18,36.58,4,4.9,5.74,3.3,7.74-1.72a150.86,150.86,0,0,1,9.27-19.52c2.47-4.27,2.4-7.56-.37-11.52-9.14-13-18.67-25.84-26.35-39.85-.8-1.46-2.13-4.26-3.79-2.44C436.41,251.59,430.78,256.1,429.94,263.81ZM564.7,480.7a16.12,16.12,0,0,0,2.15-1.58,153.23,153.23,0,0,0,22-28.4,5.34,5.34,0,0,0-.43-6.7c-15.25-17.31-30.56-34.57-44.77-52.76-1-1.31-2.3-3.53-4.19-2.08a5.73,5.73,0,0,0-1.73,4.77,25.36,25.36,0,0,0,3.3,7.28,118.26,118.26,0,0,1,12.61,29.65c4,14.53,6.27,29.31,8.23,44.18C562.13,477.1,561,480.15,564.7,480.7Zm-15.38-263a27.29,27.29,0,0,0,9.83-18.6c1-8.43.38-16.54-3.94-24.46-7.36-13.5-4.86-28-2.79-42.37.5-3.46,1.49-8.34-1.25-10.31-3.33-2.4-6.25,2.17-9.25,3.77-3.42,1.83-6.32,4.6-9.66,6.61-3,1.79-4.14,3.81-3.25,7.39C535.37,165.33,539.82,191.47,549.32,217.66Zm158.1-45.91c-2,3.51-7.31-1.51-9.17,3-5.13,12.52-12.63,24-15.81,37.37-1.65,6.94-.79,13.4,3.95,18.66s6.77,11.35,7.34,18.05c.91,10.62,5.4,19.56,11.8,27.86,14.85,19.26,15.13,29.67,1.67,49.86-1.34,2-2.91,3.85-4.24,5.86-10.26,15.51-3,35.21,14.86,40.53,12.57,3.74,22.63-1.92,23.9-13.43-7.8,8.77-16.66,10.67-26.3,5.63-8.89-4.65-12.22-13.45-9.92-24.66,1.69-8.25,6.26-15,10.56-21.83,4.88-7.78,6.71-15.74,4.65-24.92-2.58-11.49-9.52-20.7-14.74-30.81-.3-.58,0-1.5.09-2.18,3.18-.27,2.87,4.54,7,3.41-7.1-10.5-13.78-20.87-21-30.87-5.7-7.94-7.43-16.32-4.69-25.6.65-2.2.93-5.3,4.07-5.22,4.59.12,5.34-3.34,6.52-6.3C701.23,188.07,704.29,179.89,707.42,171.75Zm72.51,387.47c5.43-1.4,9.7-2.87,14.1-3.55,6.86-1.06,7.27-5,5.39-10.38a61.26,61.26,0,0,0-10.61-18.76c-21.17-25.78-11-21.59-41-11.09-5.66,2-7.92,5.46-5.13,11,2.7,5.39.63,15.32,12,12.85,9.29-2,18.57-1,27.72,1.13,5.74,1.32,9.37,3.58,3.22,9.35C783.25,552,780.87,554.41,779.93,559.22ZM718.55,359.78c-6.6-11.89-1.32-21.17,5.48-30.18,2.9-3.84,5.6-7.85,8.72-11.5,9.23-10.75,9.53-22.8,5.8-35.65-4.23-14.54-14.5-25.53-22.06-38.11-.68-1.12-2.45-3.46-3.19-1.92-3.69,7.75-4.47-.41-4.89-1.15-4.7-8.35-4.19-17.13-2.17-26.26,2.25-10.2,7.87-19.25,9.6-29.62-5.56,10.16-10.55,20.53-14.16,34.15-2.21-11.56,3.69-18.84,5.13-27-10.56,16.62-13.2,33.44-1.39,50.81,6.77,9.94,13.07,20.2,19.61,30.3,9.91,15.32,9.12,29.78-2.66,44-6.13,7.38-11.79,15.3-13.47,25.2C707.54,350.86,709.85,357,718.55,359.78Zm-152.71,3.79c2-1.41,2.67-1.64,3-2.1a11.55,11.55,0,0,0,1.11-2.42c4.61-12.55,3.18-28.77,20.54-33.56.67-.18,1.08-1.39,1.57-2.15q5.57-8.77,11.1-17.55c11.12-17.63,10.22-35.2.07-52.92-5.49-9.6-13.42-17.83-16.06-29.11-.63-2.66-3-5.09-6.61-6.35-.92,6,1.57,10.82,4.33,15.37,2.34,3.86,5.18,7.41,7.78,11.1,11.66,16.54,12.2,33.5,1.87,50.83-6.47,10.87-13.37,21.49-19.46,32.57C569.12,338.08,564.69,349.48,565.84,363.57ZM611.71,380c11.08-8.18,22.67-15.76,33.12-24.67,17.56-14.95,20.69-32.6,10.91-53.57-1-2-3-3.83-1.7-7.57,12.63,17.22,17.38,34.52,5.84,55.14,12.54-10.74,15.59-23.1,9.16-37.77-10.69-24.37-30.89-40.64-50-58.55-.54,1.4-.8,1.78-.72,1.9,1.1,1.4,2.15,2.85,3.38,4.13a168,168,0,0,1,28.1,39.36c11.46,22.18,8.23,39.6-11.05,55.16-5.85,4.73-11.9,9.22-17.76,13.94C617.06,370.74,613.21,374.12,611.71,380Zm135-12.42c-2,1-2.94,1.27-3.47,1.87-11,12.79-28.54,8.72-38.91-.21-11.44-9.85-13.11-25.88-4.4-39.23a126.9,126.9,0,0,0,8.39-13.87c7.09-14.69-.33-34.51-14.92-41.69-3-1.49-4.8.15-6.32,1.38-1.8,1.46.19,3.22,1.3,4.49,2.58,2.94,5.36,5.69,8,8.63,10,11.38,10.69,18.6,2.92,31.74-1.68,2.85-3.37,5.71-5.17,8.48-7,10.74-10.16,21.77-3,33.82,7.38,12.48,18.54,18.58,32.7,19.3C734.46,382.86,743.59,377.16,746.73,367.61Zm-305,25.21c-5.27,12.38-10.69,22.5-11.49,34.1-1,14.62,5.89,21.26,21.35,20.78-3.38-3.91-10.75-4.45-10-14.07,6,8.16,12.15,11.18,21.23,7.55-7-6.13-9.37-12.94-6.73-21.26a8,8,0,0,0-1.68-7.66C449.69,406.84,446.14,400.67,441.68,392.82Zm146.93-146c4.08,21.25-2.12,39.45-14.62,56.1a130.44,130.44,0,0,0-9.07,13.46C555,333.7,553.36,358.92,561,371.72c.55-30.46,3-39.47,16.39-60.66,5.64-8.9,11.53-17.68,15.73-27.39C598.77,270.57,597.57,258.12,588.61,246.81Zm234.46-4.73c-11.51-19.78-31.43-20.23-49.91-27.05,2.46,2.69,5.13,5.15,4.91,5.44-5.75,7.6,2.48,6.55,5.24,7.94,4,2,8.54,2.82,12.79,4.34,13.69,4.9,21.67,14.13,23.5,29,1.14,9.35.52,18.62.73,27.92.15,6.69,1.63,12.82,5.73,18.16-3.27-9.61-4.66-19.2-2.64-29.28,2.45-12.3,3.65-24.53-4.86-35.41-.61-.78-1.66-2.32.35-2.68C819.87,240.31,821,241.25,823.07,242.08Zm-336.56,121c9.31-19.79,12.77-40.49,16.21-61.18.3-1.78,0-4.16-1.83-4.73-2.7-.85-3.38,1.94-4.24,3.68q-9.76,19.88-17.55,40.61C475.65,350.62,478.81,357,486.51,363.07ZM750.9,299.51c1.06-13.29.08-26.47-6.41-37.9-5.6-9.85-13.9-18.11-20.34-27.53-7.38-10.78-7.22-15-3.68-26.77,1.31-4.35,3.66-7.41,6.48-10.52,1.72-1.9,1.48-3.79-.34-5.56-2.37-2.32-3.29-.41-4.82,1.27-10.28,11.24-12.2,23.93-5.7,38.38,5.08,11.3,12.3,21.37,18.34,32.11C741,274.62,753.3,283.76,750.9,299.51Zm-97-147.58c.22,10.47,7.74,19,14.85,16.89,8.08-2.43,14.37-18.3,9.43-25.31-1.8-2.55-2.07-6.58-6.91-7.36C660.08,134.36,653.61,139.84,653.87,151.93ZM811.42,280.79c4.58-3.84,4.61-7.53,4.82-11,1.12-18.26-7-28.66-27.87-35.24-2.14-.68-5.36-3.71-6.77.19-1,2.82-1.24,6.69,2.39,8.83a78,78,0,0,1,11,7.75C803.82,258.8,807.75,269.11,811.42,280.79Zm-314.75.6c-5.37,6.93-10.41,13.19-15.18,19.64-6.46,8.75-11,18.55-15.25,28.52-2.61,6.12.65,11.09,4.94,12.72,3.8,1.44,4.16-4.65,5.21-7.74,5.05-14.85,11.27-29.1,20.56-41.86C499.23,289.54,500.29,286.31,496.67,281.39Zm270.06,83.49c-1.08-1.83-1.92-3.37-2.87-4.85-4.3-6.74-10.21-11.73-17-15.82-13.13-7.89-15.25-7.07-19.76,7.71-.9,2.95-2.26,5.93,1.27,7.93,2.14,1.22,4.76,1.69,6.69-.33,2.47-2.59,1.54-5.58.11-8.35-.78-1.52-2.76-2.79-1.19-4.71s3.77-1.65,5.86-1.22a15.19,15.19,0,0,1,9.48,6.4q8.21,11.5,1,23.65c-1.64,2.8-1.61,5.17,1.51,6.77,1.67.86,3.7,3.84,5.3,1.22C760.72,377.42,763.55,371.11,766.73,364.88Zm-200.5,47.77c-.83-10.2-.39-18.51-6.42-25.54-5.45-6.36-6.82-14.93-10.6-22.63-2,7-10.31,12.84-5.15,20.58C550.28,394.39,556.41,404.05,566.23,412.65ZM831.17,331.1c5.9.24,12.2,2.46,14.41-5.25a27,27,0,0,1-21.06-11.49c-2.37-3.33-5-2-7.67-1.94-1.8.05-2.34,1.78-1.93,3.41,2.24,8.77,3.93,18,13.39,22.27,3.22,1.44,8.1,5.27,10.27.82C840.91,334.14,833.17,335.87,831.17,331.1Zm-136-183.56c-3,20.19-15.22,36.39-23.23,54.4-1,2.26-5.35,5.36-1.13,7.51s7.12-.59,8.52-5.18c3.65-12,13.49-21.32,13-35.42C692.07,162.18,695.67,155,695.18,147.54ZM808.44,294.76c.53-7.2-1.05-13.86-3.3-20.33-2.67-7.7-6.1-15-12.47-20.5-2-1.71-4.18-4.47-6.92-2.05-3.56,3.16.78,4.43,2.22,6.22,3.19,4,6.54,7.82,10.51,12.53-5.77.13-7.09-6.73-13.06-3.88C793.75,276.17,803.73,283.29,808.44,294.76Zm54.37,28.83c-10.84,21.05-17.31,23.53-41.48,17.08,1.47,7.48,8.39,11.64,18.22,10.93C853.27,350.61,861.89,340.87,862.81,323.59Z" transform="translate(-310.93 -60.96)"/><path d="M930.59,379.5c-4.23,12.35-14.23,20.62-22.39,29.89a348.88,348.88,0,0,1-50.35,47.18c-2.67,2-5.32,3.86-8.7,4.37.31-2.62,2-4.22,4-5.67,27.16-19.78,49.69-44.22,70.6-70.27C925.67,382.66,927.28,380,930.59,379.5Z" transform="translate(-310.93 -60.96)"/></svg>